<svg xmlns="http://www.w3.org/2000/svg" xmlns:xlink="http://www.w3.org/1999/xlink" width="455" height="202" viewBox="0 0 455 202"><defs><clipPath id="a"><rect width="399" height="35" fill="none"/></clipPath><clipPath id="c"><rect width="134" height="26" fill="none"/></clipPath><clipPath id="d"><rect width="92" height="26" fill="none"/></clipPath><clipPath id="e"><rect width="10" height="26" fill="none"/></clipPath><clipPath id="j"><rect width="455" height="202"/></clipPath></defs><g id="i" clip-path="url(#j)"><rect width="455" height="202" fill="#fff"/><rect width="455" height="197" rx="9" transform="translate(0 3)" fill="rgba(0,0,0,0.03)"/><text transform="translate(30 33)" fill="#858585" font-size="13" font-family="Helvetica Neue, Helvetica, Arial, sans-serif" font-weight="500"><tspan x="0" y="13">resiiiiiiiiiiiiiiiiiiiiiiiiiiiiize</tspan></text><text transform="translate(248 33)" fill="#858585" font-size="13" font-family="Helvetica Neue, Helvetica, Arial, sans-serif" font-weight="500"><tspan x="0" y="13">resiiiiiiiiiiiiiiiiiize</tspan></text><text transform="translate(30 102)" fill="#3a86ff" font-size="13" font-family="Helvetica Neue, Helvetica, Arial, sans-serif" font-weight="500"><tspan x="0" y="13">resizestart</tspan></text><text transform="translate(248 102)" fill="#3a86ff" font-size="13" font-family="Helvetica Neue, Helvetica, Arial, sans-serif" font-weight="500"><tspan x="0" y="13">resizestart</tspan></text><text transform="translate(156 156)" fill="#ff096e" font-size="13" font-family="Helvetica Neue, Helvetica, Arial, sans-serif" font-weight="500"><tspan x="0" y="13">resizestop</tspan></text><text transform="translate(332 156)" fill="#ff096e" font-size="13" font-family="Helvetica Neue, Helvetica, Arial, sans-serif" font-weight="500"><tspan x="0" y="13">resizestop</tspan></text><g transform="translate(30 56.5)" clip-path="url(#a)"><g transform="translate(-18 -65.5)"><line y2="18" transform="translate(21.5 69.5)" fill="none" stroke="#d8d8d8" stroke-width="1"/><line y2="18" transform="translate(28.5 69.5)" fill="none" stroke="#d8d8d8" stroke-width="1"/></g><g transform="translate(-4 -65.5)"><line y2="18" transform="translate(21.5 69.5)" fill="none" stroke="#d8d8d8" stroke-width="1"/><line y2="18" transform="translate(28.5 69.5)" fill="none" stroke="#d8d8d8" stroke-width="1"/></g><g transform="translate(10 -65.5)"><line y2="18" transform="translate(21.5 69.5)" fill="none" stroke="#d8d8d8" stroke-width="1"/><line y2="18" transform="translate(28.5 69.5)" fill="none" stroke="#d8d8d8" stroke-width="1"/></g><g transform="translate(24 -65.5)"><line y2="18" transform="translate(21.5 69.5)" fill="none" stroke="#d8d8d8" stroke-width="1"/><line y2="18" transform="translate(28.5 69.5)" fill="none" stroke="#d8d8d8" stroke-width="1"/></g><g transform="translate(38 -65.5)"><line y2="18" transform="translate(21.5 69.5)" fill="none" stroke="#d8d8d8" stroke-width="1"/><line y2="18" transform="translate(28.5 69.5)" fill="none" stroke="#d8d8d8" stroke-width="1"/></g><g transform="translate(52 -65.5)"><line y2="18" transform="translate(21.5 69.5)" fill="none" stroke="#d8d8d8" stroke-width="1"/><line y2="18" transform="translate(28.5 69.5)" fill="none" stroke="#d8d8d8" stroke-width="1"/></g><g transform="translate(66 -65.5)"><line y2="18" transform="translate(21.5 69.5)" fill="none" stroke="#d8d8d8" stroke-width="1"/><line y2="18" transform="translate(28.5 69.5)" fill="none" stroke="#d8d8d8" stroke-width="1"/></g><g transform="translate(80 -65.5)"><line y2="18" transform="translate(21.5 69.5)" fill="none" stroke="#d8d8d8" stroke-width="1"/><line y2="18" transform="translate(28.5 69.5)" fill="none" stroke="#d8d8d8" stroke-width="1"/></g><g transform="translate(94 -65.5)"><line y2="18" transform="translate(21.5 69.5)" fill="none" stroke="#d8d8d8" stroke-width="1"/><line y2="18" transform="translate(28.5 69.5)" fill="none" stroke="#d8d8d8" stroke-width="1"/></g><g transform="translate(108 -65.5)"><line y2="18" transform="translate(21.5 69.5)" fill="none" stroke="#d8d8d8" stroke-width="1"/><line y2="18" transform="translate(28.5 69.5)" fill="none" stroke="#d8d8d8" stroke-width="1"/></g><g transform="translate(122 -65.5)"><line y2="18" transform="translate(21.5 69.5)" fill="none" stroke="#d8d8d8" stroke-width="1"/><line y2="18" transform="translate(28.5 69.5)" fill="none" stroke="#d8d8d8" stroke-width="1"/></g><g transform="translate(136 -65.5)"><line y2="18" transform="translate(21.5 69.5)" fill="none" stroke="#d8d8d8" stroke-width="1"/><line y2="18" transform="translate(28.5 69.5)" fill="none" stroke="#d8d8d8" stroke-width="1"/></g><g transform="translate(150 -65.5)"><line y2="18" transform="translate(21.5 69.5)" fill="none" stroke="#d8d8d8" stroke-width="1"/><line y2="18" transform="translate(28.5 69.5)" fill="none" stroke="#d8d8d8" stroke-width="1"/></g><g transform="translate(164 -65.5)"><line y2="18" transform="translate(21.5 69.5)" fill="none" stroke="#d8d8d8" stroke-width="1"/><line y2="18" transform="translate(28.5 69.5)" fill="none" stroke="#d8d8d8" stroke-width="1"/></g><g transform="translate(178 -65.5)"><line y2="18" transform="translate(21.5 69.5)" fill="none" stroke="#d8d8d8" stroke-width="1"/><line y2="18" transform="translate(28.5 69.5)" fill="none" stroke="#d8d8d8" stroke-width="1"/></g><g transform="translate(192 -65.5)"><line y2="18" transform="translate(21.5 69.5)" fill="none" stroke="#d8d8d8" stroke-width="1"/><line y2="18" transform="translate(28.5 69.5)" fill="none" stroke="#d8d8d8" stroke-width="1"/></g><g transform="translate(206 -65.5)"><line y2="18" transform="translate(21.5 69.5)" fill="none" stroke="#d8d8d8" stroke-width="1"/><line y2="18" transform="translate(28.5 69.5)" fill="none" stroke="#d8d8d8" stroke-width="1"/></g><g transform="translate(220 -65.5)"><line y2="18" transform="translate(21.5 69.5)" fill="none" stroke="#d8d8d8" stroke-width="1"/><line y2="18" transform="translate(28.5 69.5)" fill="none" stroke="#d8d8d8" stroke-width="1"/></g><g transform="translate(234 -65.5)"><line y2="18" transform="translate(21.5 69.5)" fill="none" stroke="#d8d8d8" stroke-width="1"/><line y2="18" transform="translate(28.5 69.5)" fill="none" stroke="#d8d8d8" stroke-width="1"/></g><g transform="translate(248 -65.5)"><line y2="18" transform="translate(21.5 69.5)" fill="none" stroke="#d8d8d8" stroke-width="1"/><line y2="18" transform="translate(28.5 69.5)" fill="none" stroke="#d8d8d8" stroke-width="1"/></g><g transform="translate(262 -65.5)"><line y2="18" transform="translate(21.5 69.5)" fill="none" stroke="#d8d8d8" stroke-width="1"/><line y2="18" transform="translate(28.5 69.5)" fill="none" stroke="#d8d8d8" stroke-width="1"/></g><g transform="translate(276 -65.5)"><line y2="18" transform="translate(21.5 69.5)" fill="none" stroke="#d8d8d8" stroke-width="1"/><line y2="18" transform="translate(28.5 69.5)" fill="none" stroke="#d8d8d8" stroke-width="1"/></g><g transform="translate(290 -65.5)"><line y2="18" transform="translate(21.5 69.5)" fill="none" stroke="#d8d8d8" stroke-width="1"/><line y2="18" transform="translate(28.5 69.5)" fill="none" stroke="#d8d8d8" stroke-width="1"/></g><g transform="translate(304 -65.5)"><line y2="18" transform="translate(21.5 69.5)" fill="none" stroke="#d8d8d8" stroke-width="1"/><line y2="18" transform="translate(28.5 69.5)" fill="none" stroke="#d8d8d8" stroke-width="1"/></g><g transform="translate(318 -65.5)"><line y2="18" transform="translate(21.5 69.5)" fill="none" stroke="#d8d8d8" stroke-width="1"/><line y2="18" transform="translate(28.5 69.5)" fill="none" stroke="#d8d8d8" stroke-width="1"/></g><g transform="translate(332 -65.5)"><line y2="18" transform="translate(21.5 69.5)" fill="none" stroke="#d8d8d8" stroke-width="1"/><line y2="18" transform="translate(28.5 69.5)" fill="none" stroke="#d8d8d8" stroke-width="1"/></g><g transform="translate(346 -65.5)"><line y2="18" transform="translate(21.5 69.5)" fill="none" stroke="#d8d8d8" stroke-width="1"/><line y2="18" transform="translate(28.5 69.5)" fill="none" stroke="#d8d8d8" stroke-width="1"/></g><g transform="translate(360 -65.5)"><line y2="18" transform="translate(21.5 69.5)" fill="none" stroke="#d8d8d8" stroke-width="1"/><line y2="18" transform="translate(28.5 69.5)" fill="none" stroke="#d8d8d8" stroke-width="1"/></g><g transform="translate(374 -65.5)"><line y2="18" transform="translate(21.5 69.5)" fill="none" stroke="#d8d8d8" stroke-width="1"/><line y2="18" transform="translate(28.5 69.5)" fill="none" stroke="#d8d8d8" stroke-width="1"/></g></g><g transform="translate(30 125.5)" clip-path="url(#a)"><g transform="translate(-18 -65.5)"><line y2="18" transform="translate(21.5 69.5)" fill="none" stroke="#d8d8d8" stroke-width="1"/><line y2="18" transform="translate(28.5 69.5)" fill="none" stroke="#d8d8d8" stroke-width="1"/></g><g transform="translate(-4 -65.5)"><line y2="18" transform="translate(21.5 69.5)" fill="none" stroke="#d8d8d8" stroke-width="1"/><line y2="18" transform="translate(28.5 69.5)" fill="none" stroke="#d8d8d8" stroke-width="1"/></g><g transform="translate(10 -65.5)"><line y2="18" transform="translate(21.5 69.5)" fill="none" stroke="#d8d8d8" stroke-width="1"/><line y2="18" transform="translate(28.5 69.5)" fill="none" stroke="#d8d8d8" stroke-width="1"/></g><g transform="translate(24 -65.5)"><line y2="18" transform="translate(21.5 69.5)" fill="none" stroke="#d8d8d8" stroke-width="1"/><line y2="18" transform="translate(28.5 69.5)" fill="none" stroke="#d8d8d8" stroke-width="1"/></g><g transform="translate(38 -65.5)"><line y2="18" transform="translate(21.5 69.5)" fill="none" stroke="#d8d8d8" stroke-width="1"/><line y2="18" transform="translate(28.5 69.5)" fill="none" stroke="#d8d8d8" stroke-width="1"/></g><g transform="translate(52 -65.5)"><line y2="18" transform="translate(21.5 69.5)" fill="none" stroke="#d8d8d8" stroke-width="1"/><line y2="18" transform="translate(28.5 69.5)" fill="none" stroke="#d8d8d8" stroke-width="1"/></g><g transform="translate(66 -65.5)"><line y2="18" transform="translate(21.5 69.5)" fill="none" stroke="#d8d8d8" stroke-width="1"/><line y2="18" transform="translate(28.5 69.5)" fill="none" stroke="#d8d8d8" stroke-width="1"/></g><g transform="translate(80 -65.5)"><line y2="18" transform="translate(21.5 69.5)" fill="none" stroke="#d8d8d8" stroke-width="1"/><line y2="18" transform="translate(28.5 69.5)" fill="none" stroke="#d8d8d8" stroke-width="1"/></g><g transform="translate(94 -65.5)"><line y2="18" transform="translate(21.5 69.5)" fill="none" stroke="#d8d8d8" stroke-width="1"/><line y2="18" transform="translate(28.5 69.5)" fill="none" stroke="#d8d8d8" stroke-width="1"/></g><g transform="translate(108 -65.5)"><line y2="18" transform="translate(21.5 69.5)" fill="none" stroke="#d8d8d8" stroke-width="1"/><line y2="18" transform="translate(28.5 69.5)" fill="none" stroke="#d8d8d8" stroke-width="1"/></g><g transform="translate(122 -65.5)"><line y2="18" transform="translate(21.5 69.5)" fill="none" stroke="#d8d8d8" stroke-width="1"/><line y2="18" transform="translate(28.5 69.5)" fill="none" stroke="#d8d8d8" stroke-width="1"/></g><g transform="translate(136 -65.5)"><line y2="18" transform="translate(21.5 69.5)" fill="none" stroke="#d8d8d8" stroke-width="1"/><line y2="18" transform="translate(28.5 69.5)" fill="none" stroke="#d8d8d8" stroke-width="1"/></g><g transform="translate(150 -65.5)"><line y2="18" transform="translate(21.5 69.5)" fill="none" stroke="#d8d8d8" stroke-width="1"/><line y2="18" transform="translate(28.5 69.5)" fill="none" stroke="#d8d8d8" stroke-width="1"/></g><g transform="translate(164 -65.5)"><line y2="18" transform="translate(21.5 69.5)" fill="none" stroke="#d8d8d8" stroke-width="1"/><line y2="18" transform="translate(28.5 69.5)" fill="none" stroke="#d8d8d8" stroke-width="1"/></g><g transform="translate(178 -65.5)"><line y2="18" transform="translate(21.5 69.5)" fill="none" stroke="#d8d8d8" stroke-width="1"/><line y2="18" transform="translate(28.5 69.5)" fill="none" stroke="#d8d8d8" stroke-width="1"/></g><g transform="translate(192 -65.5)"><line y2="18" transform="translate(21.5 69.5)" fill="none" stroke="#d8d8d8" stroke-width="1"/><line y2="18" transform="translate(28.5 69.5)" fill="none" stroke="#d8d8d8" stroke-width="1"/></g><g transform="translate(206 -65.5)"><line y2="18" transform="translate(21.5 69.5)" fill="none" stroke="#d8d8d8" stroke-width="1"/><line y2="18" transform="translate(28.5 69.5)" fill="none" stroke="#d8d8d8" stroke-width="1"/></g><g transform="translate(220 -65.5)"><line y2="18" transform="translate(21.5 69.5)" fill="none" stroke="#d8d8d8" stroke-width="1"/><line y2="18" transform="translate(28.5 69.5)" fill="none" stroke="#d8d8d8" stroke-width="1"/></g><g transform="translate(234 -65.5)"><line y2="18" transform="translate(21.5 69.5)" fill="none" stroke="#d8d8d8" stroke-width="1"/><line y2="18" transform="translate(28.5 69.5)" fill="none" stroke="#d8d8d8" stroke-width="1"/></g><g transform="translate(248 -65.5)"><line y2="18" transform="translate(21.5 69.5)" fill="none" stroke="#d8d8d8" stroke-width="1"/><line y2="18" transform="translate(28.5 69.5)" fill="none" stroke="#d8d8d8" stroke-width="1"/></g><g transform="translate(262 -65.5)"><line y2="18" transform="translate(21.5 69.5)" fill="none" stroke="#d8d8d8" stroke-width="1"/><line y2="18" transform="translate(28.5 69.5)" fill="none" stroke="#d8d8d8" stroke-width="1"/></g><g transform="translate(276 -65.5)"><line y2="18" transform="translate(21.5 69.5)" fill="none" stroke="#d8d8d8" stroke-width="1"/><line y2="18" transform="translate(28.5 69.5)" fill="none" stroke="#d8d8d8" stroke-width="1"/></g><g transform="translate(290 -65.5)"><line y2="18" transform="translate(21.5 69.5)" fill="none" stroke="#d8d8d8" stroke-width="1"/><line y2="18" transform="translate(28.5 69.5)" fill="none" stroke="#d8d8d8" stroke-width="1"/></g><g transform="translate(304 -65.5)"><line y2="18" transform="translate(21.5 69.5)" fill="none" stroke="#d8d8d8" stroke-width="1"/><line y2="18" transform="translate(28.5 69.5)" fill="none" stroke="#d8d8d8" stroke-width="1"/></g><g transform="translate(318 -65.5)"><line y2="18" transform="translate(21.5 69.5)" fill="none" stroke="#d8d8d8" stroke-width="1"/><line y2="18" transform="translate(28.5 69.5)" fill="none" stroke="#d8d8d8" stroke-width="1"/></g><g transform="translate(332 -65.5)"><line y2="18" transform="translate(21.5 69.5)" fill="none" stroke="#d8d8d8" stroke-width="1"/><line y2="18" transform="translate(28.5 69.5)" fill="none" stroke="#d8d8d8" stroke-width="1"/></g><g transform="translate(346 -65.5)"><line y2="18" transform="translate(21.5 69.5)" fill="none" stroke="#d8d8d8" stroke-width="1"/><line y2="18" transform="translate(28.5 69.5)" fill="none" stroke="#d8d8d8" stroke-width="1"/></g><g transform="translate(360 -65.5)"><line y2="18" transform="translate(21.5 69.5)" fill="none" stroke="#d8d8d8" stroke-width="1"/><line y2="18" transform="translate(28.5 69.5)" fill="none" stroke="#d8d8d8" stroke-width="1"/></g><g transform="translate(374 -65.5)"><line y2="18" transform="translate(21.5 69.5)" fill="none" stroke="#d8d8d8" stroke-width="1"/><line y2="18" transform="translate(28.5 69.5)" fill="none" stroke="#d8d8d8" stroke-width="1"/></g></g><g transform="translate(30 56.5)" clip-path="url(#c)"><g transform="translate(-18 -65.5)"><line y2="18" transform="translate(21.5 69.5)" fill="none" stroke="#858585" stroke-linecap="round" stroke-width="3" stroke-dasharray="0"/><line y2="18" transform="translate(28.5 69.5)" fill="none" stroke="#858585" stroke-linecap="round" stroke-width="3" stroke-dasharray="0"/><g transform="translate(33 178)"><rect width="100" height="220" fill="#ffbe0b"/><rect width="100" height="220" transform="translate(100)" fill="#fb5607"/><rect width="100" height="220" transform="translate(200)" fill="#ff006e"/><rect width="100" height="220" transform="translate(300)" fill="#8338ec"/><rect width="100" height="220" transform="translate(400)" fill="#3a86ff"/><text transform="translate(10 235)" font-size="6" font-family="ArialMT, Arial"><tspan x="0" y="0">Exported from Coolors.co</tspan></text><text transform="translate(490 235)" font-size="6" font-family="ArialMT, Arial"><tspan x="-142.77" y="0">https://coolors.co/ffbe0b-fb5607-ff006e-8338ec-3a86ff</tspan></text></g></g><g transform="translate(-4 -65.5)"><line y2="18" transform="translate(21.5 69.5)" fill="none" stroke="#858585" stroke-linecap="round" stroke-width="3" stroke-dasharray="0"/><line y2="18" transform="translate(28.5 69.5)" fill="none" stroke="#858585" stroke-linecap="round" stroke-width="3" stroke-dasharray="0"/><g transform="translate(33 178)"><rect width="100" height="220" fill="#ffbe0b"/><rect width="100" height="220" transform="translate(100)" fill="#fb5607"/><rect width="100" height="220" transform="translate(200)" fill="#ff006e"/><rect width="100" height="220" transform="translate(300)" fill="#8338ec"/><rect width="100" height="220" transform="translate(400)" fill="#3a86ff"/><text transform="translate(10 235)" font-size="6" font-family="ArialMT, Arial"><tspan x="0" y="0">Exported from Coolors.co</tspan></text><text transform="translate(490 235)" font-size="6" font-family="ArialMT, Arial"><tspan x="-142.77" y="0">https://coolors.co/ffbe0b-fb5607-ff006e-8338ec-3a86ff</tspan></text></g></g><g transform="translate(10 -65.5)"><line y2="18" transform="translate(21.5 69.5)" fill="none" stroke="#858585" stroke-linecap="round" stroke-width="3" stroke-dasharray="0"/><line y2="18" transform="translate(28.5 69.5)" fill="none" stroke="#858585" stroke-linecap="round" stroke-width="3" stroke-dasharray="0"/><g transform="translate(33 178)"><rect width="100" height="220" fill="#ffbe0b"/><rect width="100" height="220" transform="translate(100)" fill="#fb5607"/><rect width="100" height="220" transform="translate(200)" fill="#ff006e"/><rect width="100" height="220" transform="translate(300)" fill="#8338ec"/><rect width="100" height="220" transform="translate(400)" fill="#3a86ff"/><text transform="translate(10 235)" font-size="6" font-family="ArialMT, Arial"><tspan x="0" y="0">Exported from Coolors.co</tspan></text><text transform="translate(490 235)" font-size="6" font-family="ArialMT, Arial"><tspan x="-142.77" y="0">https://coolors.co/ffbe0b-fb5607-ff006e-8338ec-3a86ff</tspan></text></g></g><g transform="translate(24 -65.5)"><line y2="18" transform="translate(21.5 69.5)" fill="none" stroke="#858585" stroke-linecap="round" stroke-width="3" stroke-dasharray="0"/><line y2="18" transform="translate(28.5 69.5)" fill="none" stroke="#858585" stroke-linecap="round" stroke-width="3" stroke-dasharray="0"/><g transform="translate(33 178)"><rect width="100" height="220" fill="#ffbe0b"/><rect width="100" height="220" transform="translate(100)" fill="#fb5607"/><rect width="100" height="220" transform="translate(200)" fill="#ff006e"/><rect width="100" height="220" transform="translate(300)" fill="#8338ec"/><rect width="100" height="220" transform="translate(400)" fill="#3a86ff"/><text transform="translate(10 235)" font-size="6" font-family="ArialMT, Arial"><tspan x="0" y="0">Exported from Coolors.co</tspan></text><text transform="translate(490 235)" font-size="6" font-family="ArialMT, Arial"><tspan x="-142.77" y="0">https://coolors.co/ffbe0b-fb5607-ff006e-8338ec-3a86ff</tspan></text></g></g><g transform="translate(38 -65.5)"><line y2="18" transform="translate(21.5 69.5)" fill="none" stroke="#858585" stroke-linecap="round" stroke-width="3" stroke-dasharray="0"/><line y2="18" transform="translate(28.5 69.5)" fill="none" stroke="#858585" stroke-linecap="round" stroke-width="3" stroke-dasharray="0"/><g transform="translate(33 178)"><rect width="100" height="220" fill="#ffbe0b"/><rect width="100" height="220" transform="translate(100)" fill="#fb5607"/><rect width="100" height="220" transform="translate(200)" fill="#ff006e"/><rect width="100" height="220" transform="translate(300)" fill="#8338ec"/><rect width="100" height="220" transform="translate(400)" fill="#3a86ff"/><text transform="translate(10 235)" font-size="6" font-family="ArialMT, Arial"><tspan x="0" y="0">Exported from Coolors.co</tspan></text><text transform="translate(490 235)" font-size="6" font-family="ArialMT, Arial"><tspan x="-142.77" y="0">https://coolors.co/ffbe0b-fb5607-ff006e-8338ec-3a86ff</tspan></text></g></g><g transform="translate(52 -65.5)"><line y2="18" transform="translate(21.5 69.5)" fill="none" stroke="#858585" stroke-linecap="round" stroke-width="3" stroke-dasharray="0"/><line y2="18" transform="translate(28.5 69.5)" fill="none" stroke="#858585" stroke-linecap="round" stroke-width="3" stroke-dasharray="0"/><g transform="translate(33 178)"><rect width="100" height="220" fill="#ffbe0b"/><rect width="100" height="220" transform="translate(100)" fill="#fb5607"/><rect width="100" height="220" transform="translate(200)" fill="#ff006e"/><rect width="100" height="220" transform="translate(300)" fill="#8338ec"/><rect width="100" height="220" transform="translate(400)" fill="#3a86ff"/><text transform="translate(10 235)" font-size="6" font-family="ArialMT, Arial"><tspan x="0" y="0">Exported from Coolors.co</tspan></text><text transform="translate(490 235)" font-size="6" font-family="ArialMT, Arial"><tspan x="-142.77" y="0">https://coolors.co/ffbe0b-fb5607-ff006e-8338ec-3a86ff</tspan></text></g></g><g transform="translate(66 -65.5)"><line y2="18" transform="translate(21.5 69.5)" fill="none" stroke="#858585" stroke-linecap="round" stroke-width="3" stroke-dasharray="0"/><line y2="18" transform="translate(28.5 69.5)" fill="none" stroke="#858585" stroke-linecap="round" stroke-width="3" stroke-dasharray="0"/><g transform="translate(33 178)"><rect width="100" height="220" fill="#ffbe0b"/><rect width="100" height="220" transform="translate(100)" fill="#fb5607"/><rect width="100" height="220" transform="translate(200)" fill="#ff006e"/><rect width="100" height="220" transform="translate(300)" fill="#8338ec"/><rect width="100" height="220" transform="translate(400)" fill="#3a86ff"/><text transform="translate(10 235)" font-size="6" font-family="ArialMT, Arial"><tspan x="0" y="0">Exported from Coolors.co</tspan></text><text transform="translate(490 235)" font-size="6" font-family="ArialMT, Arial"><tspan x="-142.77" y="0">https://coolors.co/ffbe0b-fb5607-ff006e-8338ec-3a86ff</tspan></text></g></g><g transform="translate(80 -65.5)"><line y2="18" transform="translate(21.5 69.5)" fill="none" stroke="#858585" stroke-linecap="round" stroke-width="3" stroke-dasharray="0"/><line y2="18" transform="translate(28.5 69.5)" fill="none" stroke="#858585" stroke-linecap="round" stroke-width="3" stroke-dasharray="0"/><g transform="translate(33 178)"><rect width="100" height="220" fill="#ffbe0b"/><rect width="100" height="220" transform="translate(100)" fill="#fb5607"/><rect width="100" height="220" transform="translate(200)" fill="#ff006e"/><rect width="100" height="220" transform="translate(300)" fill="#8338ec"/><rect width="100" height="220" transform="translate(400)" fill="#3a86ff"/><text transform="translate(10 235)" font-size="6" font-family="ArialMT, Arial"><tspan x="0" y="0">Exported from Coolors.co</tspan></text><text transform="translate(490 235)" font-size="6" font-family="ArialMT, Arial"><tspan x="-142.77" y="0">https://coolors.co/ffbe0b-fb5607-ff006e-8338ec-3a86ff</tspan></text></g></g><g transform="translate(94 -65.5)"><line y2="18" transform="translate(21.5 69.5)" fill="none" stroke="#858585" stroke-linecap="round" stroke-width="3" stroke-dasharray="0"/><line y2="18" transform="translate(28.5 69.5)" fill="none" stroke="#858585" stroke-linecap="round" stroke-width="3" stroke-dasharray="0"/><g transform="translate(33 178)"><rect width="100" height="220" fill="#ffbe0b"/><rect width="100" height="220" transform="translate(100)" fill="#fb5607"/><rect width="100" height="220" transform="translate(200)" fill="#ff006e"/><rect width="100" height="220" transform="translate(300)" fill="#8338ec"/><rect width="100" height="220" transform="translate(400)" fill="#3a86ff"/><text transform="translate(10 235)" font-size="6" font-family="ArialMT, Arial"><tspan x="0" y="0">Exported from Coolors.co</tspan></text><text transform="translate(490 235)" font-size="6" font-family="ArialMT, Arial"><tspan x="-142.77" y="0">https://coolors.co/ffbe0b-fb5607-ff006e-8338ec-3a86ff</tspan></text></g></g><g transform="translate(108 -65.5)"><line y2="18" transform="translate(21.5 69.5)" fill="none" stroke="#858585" stroke-linecap="round" stroke-width="3" stroke-dasharray="0"/><line y2="18" transform="translate(28.5 69.5)" fill="none" stroke="#858585" stroke-linecap="round" stroke-width="3" stroke-dasharray="0"/><g transform="translate(33 178)"><rect width="100" height="220" fill="#ffbe0b"/><rect width="100" height="220" transform="translate(100)" fill="#fb5607"/><rect width="100" height="220" transform="translate(200)" fill="#ff006e"/><rect width="100" height="220" transform="translate(300)" fill="#8338ec"/><rect width="100" height="220" transform="translate(400)" fill="#3a86ff"/><text transform="translate(10 235)" font-size="6" font-family="ArialMT, Arial"><tspan x="0" y="0">Exported from Coolors.co</tspan></text><text transform="translate(490 235)" font-size="6" font-family="ArialMT, Arial"><tspan x="-142.77" y="0">https://coolors.co/ffbe0b-fb5607-ff006e-8338ec-3a86ff</tspan></text></g></g></g><g transform="translate(247 56.5)" clip-path="url(#d)"><g transform="translate(-18 -65.5)"><line y2="18" transform="translate(21.5 69.5)" fill="none" stroke="#858585" stroke-linecap="round" stroke-width="3" stroke-dasharray="0"/><line y2="18" transform="translate(28.5 69.5)" fill="none" stroke="#858585" stroke-linecap="round" stroke-width="3" stroke-dasharray="0"/><g transform="translate(33 178)"><rect width="100" height="220" fill="#ffbe0b"/><rect width="100" height="220" transform="translate(100)" fill="#fb5607"/><rect width="100" height="220" transform="translate(200)" fill="#ff006e"/><rect width="100" height="220" transform="translate(300)" fill="#8338ec"/><rect width="100" height="220" transform="translate(400)" fill="#3a86ff"/><text transform="translate(10 235)" font-size="6" font-family="ArialMT, Arial"><tspan x="0" y="0">Exported from Coolors.co</tspan></text><text transform="translate(490 235)" font-size="6" font-family="ArialMT, Arial"><tspan x="-142.77" y="0">https://coolors.co/ffbe0b-fb5607-ff006e-8338ec-3a86ff</tspan></text></g></g><g transform="translate(-4 -65.5)"><line y2="18" transform="translate(21.5 69.5)" fill="none" stroke="#858585" stroke-linecap="round" stroke-width="3" stroke-dasharray="0"/><line y2="18" transform="translate(28.5 69.5)" fill="none" stroke="#858585" stroke-linecap="round" stroke-width="3" stroke-dasharray="0"/><g transform="translate(33 178)"><rect width="100" height="220" fill="#ffbe0b"/><rect width="100" height="220" transform="translate(100)" fill="#fb5607"/><rect width="100" height="220" transform="translate(200)" fill="#ff006e"/><rect width="100" height="220" transform="translate(300)" fill="#8338ec"/><rect width="100" height="220" transform="translate(400)" fill="#3a86ff"/><text transform="translate(10 235)" font-size="6" font-family="ArialMT, Arial"><tspan x="0" y="0">Exported from Coolors.co</tspan></text><text transform="translate(490 235)" font-size="6" font-family="ArialMT, Arial"><tspan x="-142.77" y="0">https://coolors.co/ffbe0b-fb5607-ff006e-8338ec-3a86ff</tspan></text></g></g><g transform="translate(10 -65.5)"><line y2="18" transform="translate(21.5 69.5)" fill="none" stroke="#858585" stroke-linecap="round" stroke-width="3" stroke-dasharray="0"/><line y2="18" transform="translate(28.5 69.5)" fill="none" stroke="#858585" stroke-linecap="round" stroke-width="3" stroke-dasharray="0"/><g transform="translate(33 178)"><rect width="100" height="220" fill="#ffbe0b"/><rect width="100" height="220" transform="translate(100)" fill="#fb5607"/><rect width="100" height="220" transform="translate(200)" fill="#ff006e"/><rect width="100" height="220" transform="translate(300)" fill="#8338ec"/><rect width="100" height="220" transform="translate(400)" fill="#3a86ff"/><text transform="translate(10 235)" font-size="6" font-family="ArialMT, Arial"><tspan x="0" y="0">Exported from Coolors.co</tspan></text><text transform="translate(490 235)" font-size="6" font-family="ArialMT, Arial"><tspan x="-142.77" y="0">https://coolors.co/ffbe0b-fb5607-ff006e-8338ec-3a86ff</tspan></text></g></g><g transform="translate(24 -65.5)"><line y2="18" transform="translate(21.5 69.5)" fill="none" stroke="#858585" stroke-linecap="round" stroke-width="3" stroke-dasharray="0"/><line y2="18" transform="translate(28.5 69.5)" fill="none" stroke="#858585" stroke-linecap="round" stroke-width="3" stroke-dasharray="0"/><g transform="translate(33 178)"><rect width="100" height="220" fill="#ffbe0b"/><rect width="100" height="220" transform="translate(100)" fill="#fb5607"/><rect width="100" height="220" transform="translate(200)" fill="#ff006e"/><rect width="100" height="220" transform="translate(300)" fill="#8338ec"/><rect width="100" height="220" transform="translate(400)" fill="#3a86ff"/><text transform="translate(10 235)" font-size="6" font-family="ArialMT, Arial"><tspan x="0" y="0">Exported from Coolors.co</tspan></text><text transform="translate(490 235)" font-size="6" font-family="ArialMT, Arial"><tspan x="-142.77" y="0">https://coolors.co/ffbe0b-fb5607-ff006e-8338ec-3a86ff</tspan></text></g></g><g transform="translate(38 -65.5)"><line y2="18" transform="translate(21.5 69.5)" fill="none" stroke="#858585" stroke-linecap="round" stroke-width="3" stroke-dasharray="0"/><line y2="18" transform="translate(28.5 69.5)" fill="none" stroke="#858585" stroke-linecap="round" stroke-width="3" stroke-dasharray="0"/><g transform="translate(33 178)"><rect width="100" height="220" fill="#ffbe0b"/><rect width="100" height="220" transform="translate(100)" fill="#fb5607"/><rect width="100" height="220" transform="translate(200)" fill="#ff006e"/><rect width="100" height="220" transform="translate(300)" fill="#8338ec"/><rect width="100" height="220" transform="translate(400)" fill="#3a86ff"/><text transform="translate(10 235)" font-size="6" font-family="ArialMT, Arial"><tspan x="0" y="0">Exported from Coolors.co</tspan></text><text transform="translate(490 235)" font-size="6" font-family="ArialMT, Arial"><tspan x="-142.77" y="0">https://coolors.co/ffbe0b-fb5607-ff006e-8338ec-3a86ff</tspan></text></g></g><g transform="translate(52 -65.5)"><line y2="18" transform="translate(21.5 69.5)" fill="none" stroke="#858585" stroke-linecap="round" stroke-width="3" stroke-dasharray="0"/><line y2="18" transform="translate(28.5 69.5)" fill="none" stroke="#858585" stroke-linecap="round" stroke-width="3" stroke-dasharray="0"/><g transform="translate(33 178)"><rect width="100" height="220" fill="#ffbe0b"/><rect width="100" height="220" transform="translate(100)" fill="#fb5607"/><rect width="100" height="220" transform="translate(200)" fill="#ff006e"/><rect width="100" height="220" transform="translate(300)" fill="#8338ec"/><rect width="100" height="220" transform="translate(400)" fill="#3a86ff"/><text transform="translate(10 235)" font-size="6" font-family="ArialMT, Arial"><tspan x="0" y="0">Exported from Coolors.co</tspan></text><text transform="translate(490 235)" font-size="6" font-family="ArialMT, Arial"><tspan x="-142.77" y="0">https://coolors.co/ffbe0b-fb5607-ff006e-8338ec-3a86ff</tspan></text></g></g><g transform="translate(66 -65.5)"><line y2="18" transform="translate(21.5 69.5)" fill="none" stroke="#858585" stroke-linecap="round" stroke-width="3" stroke-dasharray="0"/><line y2="18" transform="translate(28.5 69.5)" fill="none" stroke="#858585" stroke-linecap="round" stroke-width="3" stroke-dasharray="0"/><g transform="translate(33 178)"><rect width="100" height="220" fill="#ffbe0b"/><rect width="100" height="220" transform="translate(100)" fill="#fb5607"/><rect width="100" height="220" transform="translate(200)" fill="#ff006e"/><rect width="100" height="220" transform="translate(300)" fill="#8338ec"/><rect width="100" height="220" transform="translate(400)" fill="#3a86ff"/><text transform="translate(10 235)" font-size="6" font-family="ArialMT, Arial"><tspan x="0" y="0">Exported from Coolors.co</tspan></text><text transform="translate(490 235)" font-size="6" font-family="ArialMT, Arial"><tspan x="-142.77" y="0">https://coolors.co/ffbe0b-fb5607-ff006e-8338ec-3a86ff</tspan></text></g></g></g><g transform="translate(30 125.5)" clip-path="url(#e)"><g transform="translate(-18 -65.5)"><line y2="18" transform="translate(21.5 69.5)" fill="none" stroke="#3a86ff" stroke-linecap="round" stroke-width="4" stroke-dasharray="0"/><line y2="18" transform="translate(31.5 69.5)" fill="none" stroke="#3a86ff" stroke-linecap="round" stroke-width="4" stroke-dasharray="0"/></g></g><g transform="translate(247 125.5)" clip-path="url(#e)"><g transform="translate(-18 -65.5)"><line y2="18" transform="translate(21.5 69.5)" fill="none" stroke="#3a86ff" stroke-linecap="round" stroke-width="4" stroke-dasharray="0"/><line y2="18" transform="translate(31.5 69.5)" fill="none" stroke="#3a86ff" stroke-linecap="round" stroke-width="4" stroke-dasharray="0"/></g></g><g transform="translate(156 125.5)" clip-path="url(#e)"><g transform="translate(-18 -65.5)"><line y2="18" transform="translate(21.5 69.5)" fill="none" stroke="#ff096e" stroke-linecap="round" stroke-width="4" stroke-dasharray="0"/><line y2="18" transform="translate(31.5 69.5)" fill="none" stroke="#ff096e" stroke-linecap="round" stroke-width="4" stroke-dasharray="0"/></g></g><g transform="translate(331 125.5)" clip-path="url(#e)"><g transform="translate(-18 -65.5)"><line y2="18" transform="translate(21.5 69.5)" fill="none" stroke="#ff096e" stroke-linecap="round" stroke-width="4" stroke-dasharray="0"/><line y2="18" transform="translate(31.5 69.5)" fill="none" stroke="#ff096e" stroke-linecap="round" stroke-width="4" stroke-dasharray="0"/></g></g></g></svg>
